<svg width="19" height="18" viewBox="0 0 19 18" fill="none" xmlns="http://www.w3.org/2000/svg">
<path fill-rule="evenodd" clip-rule="evenodd" d="M8.42968 15.2091C11.9898 15.2091 14.8759 12.2584 14.8759 8.61848C14.8759 4.97859 11.9898 2.02788 8.42968 2.02788C4.86953 2.02788 1.98345 4.97859 1.98345 8.61848C1.98345 12.2584 4.86953 15.2091 8.42968 15.2091ZM8.42968 17.237C13.0853 17.237 16.8594 13.3783 16.8594 8.61848C16.8594 3.85862 13.0853 0 8.42968 0C3.7741 0 0 3.85862 0 8.61848C0 13.3783 3.7741 17.237 8.42968 17.237Z" fill="#333C52"/>
<path fill-rule="evenodd" clip-rule="evenodd" d="M17.6939 18L13.727 14.4512L15.0331 12.9251L19 16.4739L17.6939 18Z" fill="#333C52"/>
</svg>
