<svg width="54" height="50" viewBox="0 0 54 50" fill="none" xmlns="http://www.w3.org/2000/svg">
<path d="M9 4C9 1.79086 10.7909 0 13 0H25.4834C26.5513 0 27.5749 0.427017 28.3262 1.18596L32.3369 5.23757C33.0882 5.99651 34.1117 6.42353 35.1796 6.42353H50C52.2091 6.42353 54 8.21439 54 10.4235V38C54 40.2091 52.2091 42 50 42H13C10.7909 42 9 40.2091 9 38V4Z" fill="#F2F3F7"/>
<path d="M2.64536 49.6965C1.6676 49.291 0.885497 48.5089 0.480036 47.5312L0.941899 47.3396C0.771056 46.9276 0.676514 46.4755 0.676514 46V43.6875H0.176514V39.0625H0.676514V34.4375H0.176514V29.8125H0.676514V25.1875H0.176514V20.5625H0.676514V15.9375H0.176514V11.3125H0.676514V9C0.676514 8.52451 0.771056 8.07236 0.941899 7.66038L0.480036 7.46885C0.885497 6.49109 1.6676 5.70898 2.64536 5.30352L2.83689 5.76539C3.24887 5.59454 3.70102 5.5 4.17651 5.5H6.06849V5H9.85245V5.5H13.6364V5H17.4204V5.5H19.1861L20.4722 6.81463L20.8296 6.46499L23.5782 9.27468L23.2208 9.62433L24.5951 11.0292C25.4417 11.8946 26.6012 12.3824 27.8119 12.3824H29.8133V11.8824H33.8163V12.3824H37.8192V11.8824H41.8221V12.3824H43.8236C44.2991 12.3824 44.7512 12.4769 45.1632 12.6477L45.3547 12.1859C46.3325 12.5913 47.1146 13.3734 47.5201 14.3512L47.0582 14.5427C47.229 14.9547 47.3236 15.4069 47.3236 15.8824V18.3922H47.8236V23.4118H47.3236V28.4314H47.8236V33.451H47.3236V38.4706H47.8236V43.4902H47.3236V46C47.3236 46.4755 47.229 46.9276 47.0582 47.3396L47.5201 47.5312C47.1146 48.5089 46.3325 49.291 45.3547 49.6965L45.1632 49.2346C44.7512 49.4055 44.2991 49.5 43.8236 49.5H41.3456V50H36.3898V49.5H31.4339V50H26.478V49.5H21.5221V50H16.5662V49.5H11.6103V50H6.65445V49.5H4.17651C3.70102 49.5 3.24887 49.4055 2.83689 49.2346L2.64536 49.6965Z" stroke="#999DA8" stroke-dasharray="5 5"/>
</svg>
