<svg width="167" height="149" viewBox="0 0 167 149" fill="none" xmlns="http://www.w3.org/2000/svg">
<path fill-rule="evenodd" clip-rule="evenodd" d="M109.301 65.6512C111.982 63.1423 114.279 60.2295 116.092 57.0105L132.642 68.5036L126.358 77.4961L109.301 65.6512Z" fill="#162671"/>
<path d="M110.994 36.1021C110.994 52.9879 97.2463 66.7129 80.2427 66.7129C63.239 66.7129 49.4913 52.9879 49.4913 36.1021C49.4913 19.2163 63.239 5.49131 80.2427 5.49131C97.2463 5.49131 110.994 19.2163 110.994 36.1021Z" stroke="#162671" stroke-width="10.9826"/>
<path fill-rule="evenodd" clip-rule="evenodd" d="M86.5 56.0868C84.4387 56.6924 82.2573 57.0174 80 57.0174C78.1044 57.0174 76.2624 56.7882 74.5 56.3561V54.5024C74.5 53.0467 74.5 51.237 75.4043 49.9879C69.0536 49.6774 64 44.4301 64 38.0024C64 34.7105 65.3255 31.7283 67.4718 29.5602C67.2584 28.7684 67 27.6289 67 26.7523C67 25.2589 67.75 23.0023 67.75 23.0023C67.75 23.0023 70.6754 22.9187 72.25 23.7523C73.1913 24.2506 74.162 25.3479 74.7354 26.0682C75.151 26.0247 75.5729 26.0024 76 26.0024H85C85.4271 26.0024 85.849 26.0247 86.2646 26.0682C86.838 25.3479 87.8087 24.2506 88.75 23.7523C90.3246 22.9187 93.25 23.0023 93.25 23.0023C93.25 23.0023 94 25.2589 94 26.7523C94 27.6289 93.7416 28.7684 93.5282 29.5602C95.6745 31.7283 97 34.7105 97 38.0024C97 44.4303 91.946 49.6778 85.595 49.9879C86.5 51.2368 86.5 53.0463 86.5 54.5024V56.0868Z" fill="#25C9D0"/>
<path d="M12.0312 124.391C18.3125 124.391 22.0312 120.672 22.0312 114.531V111.938H12.2812V115.453H17.4375L17.4219 115.781C17.2969 118.562 15.1875 120.391 12.1094 120.391C8.35938 120.391 5.98438 117.5 5.98438 112.609V112.594C5.98438 107.812 8.21875 105.062 11.9375 105.062C14.4844 105.062 16.2812 106.328 17.0312 108.516L17.0938 108.672H21.8281L21.7812 108.453C21.0312 104.219 17.3438 101.062 11.9219 101.062C5.3125 101.062 1.17188 105.422 1.17188 112.641V112.656C1.17188 120 5.29688 124.391 12.0312 124.391ZM27.1406 105.094C28.5156 105.094 29.5781 104.016 29.5781 102.719C29.5781 101.422 28.5156 100.344 27.1406 100.344C25.7656 100.344 24.7031 101.422 24.7031 102.719C24.7031 104.016 25.7656 105.094 27.1406 105.094ZM24.8594 124H29.4219V107.25H24.8594V124ZM39.1406 124.344C40.0938 124.344 40.8281 124.25 41.3438 124.172V120.828C41.0625 120.859 40.7656 120.906 40.3594 120.906C38.9844 120.906 38.2812 120.375 38.2812 118.812V110.688H41.3438V107.25H38.2812V103.156H33.6719V107.25H31.3438V110.688H33.6719V119.312C33.6719 122.906 35.4219 124.344 39.1406 124.344ZM44.25 124H59.1875V120.109H48.9688V114.438H58.6094V110.75H48.9688V105.344H59.1875V101.453H44.25V124ZM61.0625 124H65.8594L69 118.188H69.0938L72.2812 124H77.2344L72.0469 115.531L77.2812 107.25H72.3125L69.3438 112.906H69.25L66.2344 107.25H61.0938L66.3125 115.656L61.0625 124ZM79.1094 129.469H83.6719V121.141H83.7656C84.6719 123.125 86.5625 124.344 88.9531 124.344C93.1406 124.344 95.7344 121.062 95.7344 115.625V115.609C95.7344 110.156 93.1406 106.906 88.8906 106.906C86.5156 106.906 84.6875 108.141 83.7812 110.172H83.6719V107.25H79.1094V129.469ZM87.3906 120.562C85.1719 120.562 83.6562 118.656 83.6562 115.641V115.625C83.6562 112.594 85.1719 110.688 87.3906 110.688C89.6562 110.688 91.0938 112.547 91.0938 115.609V115.625C91.0938 118.672 89.6562 120.562 87.3906 120.562ZM98.2188 124H102.781V101.453H98.2188V124ZM113.547 124.344C118.609 124.344 121.844 121.094 121.844 115.625V115.594C121.844 110.172 118.547 106.906 113.531 106.906C108.531 106.906 105.25 110.203 105.25 115.594V115.625C105.25 121.078 108.453 124.344 113.547 124.344ZM113.562 120.766C111.312 120.766 109.891 118.906 109.891 115.625V115.594C109.891 112.359 111.328 110.484 113.531 110.484C115.75 110.484 117.203 112.359 117.203 115.594V115.625C117.203 118.891 115.781 120.766 113.562 120.766ZM124.203 124H128.766V114.625C128.766 112.188 130.078 110.844 132.328 110.844C132.984 110.844 133.609 110.938 133.984 111.094V107.078C133.641 106.984 133.172 106.906 132.672 106.906C130.719 106.906 129.359 108.109 128.859 110.172H128.766V107.25H124.203V124ZM142.922 124.344C147.703 124.344 150.016 121.516 150.531 119.047L150.578 118.875H146.391L146.359 118.969C146.031 119.906 144.891 120.938 143.016 120.938C140.688 120.938 139.234 119.375 139.188 116.703H150.719V115.297C150.719 110.234 147.641 106.906 142.734 106.906C137.828 106.906 134.688 110.312 134.688 115.641V115.656C134.688 121.016 137.797 124.344 142.922 124.344ZM142.812 110.312C144.703 110.312 146.062 111.516 146.344 113.828H139.234C139.531 111.562 140.938 110.312 142.812 110.312ZM153.078 124H157.641V114.625C157.641 112.188 158.953 110.844 161.203 110.844C161.859 110.844 162.484 110.938 162.859 111.094V107.078C162.516 106.984 162.047 106.906 161.547 106.906C159.594 106.906 158.234 108.109 157.734 110.172H157.641V107.25H153.078V124Z" fill="#162671"/>
<path d="M119.307 145.137C121.125 145.137 122.328 143.688 122.328 141.445V141.438C122.328 139.196 121.111 137.754 119.327 137.754C118.322 137.754 117.495 138.26 117.051 139.08H117.023V135.136H115.834V145H117.023V143.797H117.051C117.495 144.624 118.288 145.137 119.307 145.137ZM119.074 144.084C117.871 144.084 117.017 143.038 117.017 141.445V141.438C117.017 139.853 117.878 138.807 119.074 138.807C120.332 138.807 121.111 139.818 121.111 141.438V141.445C121.111 143.079 120.332 144.084 119.074 144.084ZM123.935 147.393C125.22 147.393 125.842 146.805 126.348 145.444L129.123 137.891H127.872L125.903 143.811H125.876L123.914 137.891H122.643L125.281 145.007L125.138 145.41C124.851 146.217 124.434 146.408 123.682 146.408C123.538 146.408 123.401 146.388 123.299 146.367V147.338C123.449 147.365 123.702 147.393 123.935 147.393ZM133.115 145H136.431C139.363 145 141.086 143.175 141.086 140.064V140.051C141.086 136.954 139.35 135.136 136.431 135.136H133.115V145ZM134.346 143.893V136.243H136.349C138.584 136.243 139.828 137.604 139.828 140.064V140.078C139.828 142.525 138.584 143.893 136.349 143.893H134.346ZM144.511 145.137C145.461 145.137 146.315 144.624 146.732 143.845H146.76V145H147.949V140.085C147.949 138.663 146.896 137.754 145.215 137.754C143.54 137.754 142.521 138.697 142.419 139.866L142.412 139.941H143.561L143.574 139.88C143.711 139.244 144.285 138.807 145.201 138.807C146.192 138.807 146.76 139.333 146.76 140.201V140.796L144.723 140.912C143.089 141.008 142.146 141.767 142.146 142.977V142.99C142.146 144.282 143.096 145.137 144.511 145.137ZM143.362 142.99V142.977C143.362 142.313 143.909 141.89 144.859 141.835L146.76 141.719V142.3C146.76 143.332 145.898 144.104 144.777 144.104C143.923 144.104 143.362 143.674 143.362 142.99ZM150.868 145H152.078L153.678 139.497H153.705L155.312 145H156.521L158.504 137.891H157.328L155.906 143.674H155.879L154.266 137.891H153.117L151.511 143.674H151.483L150.062 137.891H148.879L150.868 145ZM159.481 145H160.671V140.816C160.671 139.606 161.402 138.807 162.523 138.807C163.617 138.807 164.157 139.442 164.157 140.598V145H165.347V140.386C165.347 138.766 164.444 137.754 162.886 137.754C161.806 137.754 161.081 138.239 160.698 138.902H160.671V137.891H159.481V145Z" fill="#999DA8"/>
</svg>
